<mxfile host="app.diagrams.net" modified="2021-04-20T20:02:37.716Z" agent="5.0 (Macintosh; Intel Mac OS X 11_2_3) AppleWebKit/537.36 (KHTML, like Gecko) Chrome/89.0.4389.128 Safari/537.36" etag="Twjlf7jTgxncik207oFe" version="14.6.1" type="github">
  <diagram id="5WK7SClDSwGrLiOkS9EW" name="Page-1">
    <mxGraphModel dx="946" dy="589" grid="1" gridSize="10" guides="1" tooltips="1" connect="1" arrows="1" fold="1" page="1" pageScale="1" pageWidth="850" pageHeight="1100" math="0" shadow="0">
      <root>
        <mxCell id="0" />
        <mxCell id="1" parent="0" />
        <mxCell id="qwlm0FSheLIKCQ20qJW--22" value="" style="group" parent="1" vertex="1" connectable="0">
          <mxGeometry x="100" y="420" width="420" height="80" as="geometry" />
        </mxCell>
        <mxCell id="qwlm0FSheLIKCQ20qJW--18" value="" style="rounded=0;whiteSpace=wrap;html=1;" parent="qwlm0FSheLIKCQ20qJW--22" vertex="1">
          <mxGeometry width="420" height="80" as="geometry" />
        </mxCell>
        <mxCell id="qwlm0FSheLIKCQ20qJW--19" value="apple: 10" style="rounded=1;whiteSpace=wrap;html=1;fillColor=#d5e8d4;strokeColor=#82b366;" parent="qwlm0FSheLIKCQ20qJW--22" vertex="1">
          <mxGeometry x="10" y="10" width="120" height="60" as="geometry" />
        </mxCell>
        <mxCell id="qwlm0FSheLIKCQ20qJW--20" value="banana: 15" style="rounded=1;whiteSpace=wrap;html=1;fillColor=#d5e8d4;strokeColor=#82b366;" parent="qwlm0FSheLIKCQ20qJW--22" vertex="1">
          <mxGeometry x="150" y="10" width="120" height="60" as="geometry" />
        </mxCell>
        <mxCell id="qwlm0FSheLIKCQ20qJW--21" value="dog: 20" style="rounded=1;whiteSpace=wrap;html=1;fillColor=#d5e8d4;strokeColor=#82b366;" parent="qwlm0FSheLIKCQ20qJW--22" vertex="1">
          <mxGeometry x="290" y="10" width="120" height="60" as="geometry" />
        </mxCell>
        <mxCell id="GQVjWhCtEIet-1jdMuYy-38" value="" style="group" parent="1" vertex="1" connectable="0">
          <mxGeometry x="410" y="120" width="400" height="80" as="geometry" />
        </mxCell>
        <mxCell id="GQVjWhCtEIet-1jdMuYy-36" value="......" style="rounded=0;whiteSpace=wrap;html=1;" parent="GQVjWhCtEIet-1jdMuYy-38" vertex="1">
          <mxGeometry width="400" height="80" as="geometry" />
        </mxCell>
        <mxCell id="GQVjWhCtEIet-1jdMuYy-37" value="segment 0" style="rounded=1;whiteSpace=wrap;html=1;fillColor=#d5e8d4;strokeColor=#82b366;" parent="GQVjWhCtEIet-1jdMuYy-38" vertex="1">
          <mxGeometry x="19.519999999999982" y="10" width="360.48" height="60" as="geometry" />
        </mxCell>
        <mxCell id="GQVjWhCtEIet-1jdMuYy-39" value="" style="group" parent="1" vertex="1" connectable="0">
          <mxGeometry x="410" y="200" width="400" height="80" as="geometry" />
        </mxCell>
        <mxCell id="GQVjWhCtEIet-1jdMuYy-40" value="" style="rounded=0;whiteSpace=wrap;html=1;" parent="GQVjWhCtEIet-1jdMuYy-39" vertex="1">
          <mxGeometry width="400" height="80" as="geometry" />
        </mxCell>
        <mxCell id="GQVjWhCtEIet-1jdMuYy-41" value="apple: 10" style="rounded=1;whiteSpace=wrap;html=1;fillColor=#d5e8d4;strokeColor=#82b366;" parent="GQVjWhCtEIet-1jdMuYy-39" vertex="1">
          <mxGeometry x="19.999999999999996" y="10" width="170.48" height="60" as="geometry" />
        </mxCell>
        <mxCell id="GQVjWhCtEIet-1jdMuYy-45" value="avocado: 15" style="rounded=1;whiteSpace=wrap;html=1;fillColor=#d5e8d4;strokeColor=#82b366;" parent="GQVjWhCtEIet-1jdMuYy-39" vertex="1">
          <mxGeometry x="210" y="10" width="170.48" height="60" as="geometry" />
        </mxCell>
        <mxCell id="GQVjWhCtEIet-1jdMuYy-42" value="" style="group" parent="1" vertex="1" connectable="0">
          <mxGeometry x="410" y="280" width="400" height="80" as="geometry" />
        </mxCell>
        <mxCell id="GQVjWhCtEIet-1jdMuYy-43" value="......" style="rounded=0;whiteSpace=wrap;html=1;" parent="GQVjWhCtEIet-1jdMuYy-42" vertex="1">
          <mxGeometry width="400" height="80" as="geometry" />
        </mxCell>
        <mxCell id="GQVjWhCtEIet-1jdMuYy-44" value="segment 2" style="rounded=1;whiteSpace=wrap;html=1;fillColor=#d5e8d4;strokeColor=#82b366;" parent="GQVjWhCtEIet-1jdMuYy-42" vertex="1">
          <mxGeometry x="19.519999999999982" y="10" width="360.48" height="60" as="geometry" />
        </mxCell>
        <mxCell id="GQVjWhCtEIet-1jdMuYy-46" value="" style="group;fillColor=#e1d5e7;strokeColor=#9673a6;" parent="1" vertex="1" connectable="0">
          <mxGeometry x="120" y="140" width="200" height="200" as="geometry" />
        </mxCell>
        <mxCell id="qwlm0FSheLIKCQ20qJW--25" value="" style="whiteSpace=wrap;html=1;aspect=fixed;" parent="GQVjWhCtEIet-1jdMuYy-46" vertex="1">
          <mxGeometry width="200" height="200" as="geometry" />
        </mxCell>
        <mxCell id="GQVjWhCtEIet-1jdMuYy-7" value="" style="rounded=0;whiteSpace=wrap;html=1;" parent="GQVjWhCtEIet-1jdMuYy-46" vertex="1">
          <mxGeometry width="200" height="50" as="geometry" />
        </mxCell>
        <mxCell id="GQVjWhCtEIet-1jdMuYy-8" value="" style="rounded=0;whiteSpace=wrap;html=1;fillColor=#dae8fc;strokeColor=#6c8ebf;" parent="GQVjWhCtEIet-1jdMuYy-46" vertex="1">
          <mxGeometry y="50" width="200" height="50" as="geometry" />
        </mxCell>
        <mxCell id="GQVjWhCtEIet-1jdMuYy-9" value="" style="rounded=0;whiteSpace=wrap;html=1;fillColor=#dae8fc;strokeColor=#6c8ebf;" parent="GQVjWhCtEIet-1jdMuYy-46" vertex="1">
          <mxGeometry y="100" width="200" height="50" as="geometry" />
        </mxCell>
        <mxCell id="GQVjWhCtEIet-1jdMuYy-10" value="" style="rounded=0;whiteSpace=wrap;html=1;fillColor=#dae8fc;strokeColor=#6c8ebf;" parent="GQVjWhCtEIet-1jdMuYy-46" vertex="1">
          <mxGeometry y="150" width="200" height="50" as="geometry" />
        </mxCell>
        <mxCell id="GQVjWhCtEIet-1jdMuYy-11" value="" style="endArrow=none;html=1;exitX=0.5;exitY=1;exitDx=0;exitDy=0;entryX=0.5;entryY=0;entryDx=0;entryDy=0;" parent="GQVjWhCtEIet-1jdMuYy-46" source="GQVjWhCtEIet-1jdMuYy-10" target="GQVjWhCtEIet-1jdMuYy-7" edge="1">
          <mxGeometry width="50" height="50" relative="1" as="geometry">
            <mxPoint x="99.5" y="100" as="sourcePoint" />
            <mxPoint x="100" y="10" as="targetPoint" />
          </mxGeometry>
        </mxCell>
        <mxCell id="GQVjWhCtEIet-1jdMuYy-13" value="key" style="text;html=1;strokeColor=none;fillColor=none;align=center;verticalAlign=middle;whiteSpace=wrap;rounded=0;" parent="GQVjWhCtEIet-1jdMuYy-46" vertex="1">
          <mxGeometry x="30" y="15" width="40" height="20" as="geometry" />
        </mxCell>
        <mxCell id="GQVjWhCtEIet-1jdMuYy-14" value="Offset" style="text;html=1;strokeColor=none;fillColor=none;align=center;verticalAlign=middle;whiteSpace=wrap;rounded=0;" parent="GQVjWhCtEIet-1jdMuYy-46" vertex="1">
          <mxGeometry x="130" y="15" width="40" height="20" as="geometry" />
        </mxCell>
        <mxCell id="GQVjWhCtEIet-1jdMuYy-15" value="101" style="text;html=1;strokeColor=none;fillColor=none;align=center;verticalAlign=middle;whiteSpace=wrap;rounded=0;" parent="GQVjWhCtEIet-1jdMuYy-46" vertex="1">
          <mxGeometry x="130" y="65" width="40" height="20" as="geometry" />
        </mxCell>
        <mxCell id="GQVjWhCtEIet-1jdMuYy-16" value="152" style="text;html=1;strokeColor=none;fillColor=none;align=center;verticalAlign=middle;whiteSpace=wrap;rounded=0;" parent="GQVjWhCtEIet-1jdMuYy-46" vertex="1">
          <mxGeometry x="130" y="115" width="40" height="20" as="geometry" />
        </mxCell>
        <mxCell id="GQVjWhCtEIet-1jdMuYy-17" value="200" style="text;html=1;strokeColor=none;fillColor=none;align=center;verticalAlign=middle;whiteSpace=wrap;rounded=0;" parent="GQVjWhCtEIet-1jdMuYy-46" vertex="1">
          <mxGeometry x="130" y="165" width="40" height="20" as="geometry" />
        </mxCell>
        <mxCell id="GQVjWhCtEIet-1jdMuYy-18" value="ant" style="text;html=1;strokeColor=none;fillColor=none;align=center;verticalAlign=middle;whiteSpace=wrap;rounded=0;" parent="GQVjWhCtEIet-1jdMuYy-46" vertex="1">
          <mxGeometry x="30" y="65" width="40" height="20" as="geometry" />
        </mxCell>
        <mxCell id="GQVjWhCtEIet-1jdMuYy-19" value="apple" style="text;html=1;strokeColor=none;fillColor=none;align=center;verticalAlign=middle;whiteSpace=wrap;rounded=0;" parent="GQVjWhCtEIet-1jdMuYy-46" vertex="1">
          <mxGeometry x="30" y="115" width="40" height="20" as="geometry" />
        </mxCell>
        <mxCell id="GQVjWhCtEIet-1jdMuYy-20" value="banana" style="text;html=1;strokeColor=none;fillColor=none;align=center;verticalAlign=middle;whiteSpace=wrap;rounded=0;" parent="GQVjWhCtEIet-1jdMuYy-46" vertex="1">
          <mxGeometry x="30" y="165" width="40" height="20" as="geometry" />
        </mxCell>
        <mxCell id="GQVjWhCtEIet-1jdMuYy-50" value="" style="endArrow=classic;html=1;entryX=0;entryY=0.5;entryDx=0;entryDy=0;" parent="1" target="GQVjWhCtEIet-1jdMuYy-43" edge="1">
          <mxGeometry width="50" height="50" relative="1" as="geometry">
            <mxPoint x="320" y="319.5" as="sourcePoint" />
            <mxPoint x="380" y="319.5" as="targetPoint" />
            <Array as="points" />
          </mxGeometry>
        </mxCell>
        <mxCell id="GQVjWhCtEIet-1jdMuYy-52" value="" style="edgeStyle=orthogonalEdgeStyle;rounded=0;orthogonalLoop=1;jettySize=auto;html=1;entryX=0;entryY=0.5;entryDx=0;entryDy=0;" parent="1" source="GQVjWhCtEIet-1jdMuYy-9" target="GQVjWhCtEIet-1jdMuYy-40" edge="1">
          <mxGeometry relative="1" as="geometry">
            <mxPoint x="460" y="275" as="targetPoint" />
          </mxGeometry>
        </mxCell>
        <mxCell id="GQVjWhCtEIet-1jdMuYy-54" value="" style="edgeStyle=orthogonalEdgeStyle;rounded=0;orthogonalLoop=1;jettySize=auto;html=1;entryX=0;entryY=0.5;entryDx=0;entryDy=0;" parent="1" source="GQVjWhCtEIet-1jdMuYy-8" target="GQVjWhCtEIet-1jdMuYy-36" edge="1">
          <mxGeometry relative="1" as="geometry">
            <mxPoint x="400" y="225" as="targetPoint" />
          </mxGeometry>
        </mxCell>
        <mxCell id="GQVjWhCtEIet-1jdMuYy-63" value="" style="shape=flexArrow;endArrow=classic;html=1;" parent="1" edge="1">
          <mxGeometry width="50" height="50" relative="1" as="geometry">
            <mxPoint x="450" y="640" as="sourcePoint" />
            <mxPoint x="520" y="640" as="targetPoint" />
          </mxGeometry>
        </mxCell>
        <mxCell id="GQVjWhCtEIet-1jdMuYy-92" value="" style="group" parent="1" vertex="1" connectable="0">
          <mxGeometry x="320" y="850" width="220" height="150" as="geometry" />
        </mxCell>
        <mxCell id="GQVjWhCtEIet-1jdMuYy-93" value="5: reference_1&amp;nbsp;" style="rounded=0;whiteSpace=wrap;html=1;" parent="GQVjWhCtEIet-1jdMuYy-92" vertex="1">
          <mxGeometry x="55" width="110" height="50" as="geometry" />
        </mxCell>
        <mxCell id="GQVjWhCtEIet-1jdMuYy-94" value="" style="group" parent="GQVjWhCtEIet-1jdMuYy-92" vertex="1" connectable="0">
          <mxGeometry y="100" width="220" height="50" as="geometry" />
        </mxCell>
        <mxCell id="GQVjWhCtEIet-1jdMuYy-95" value="1: reference_0" style="rounded=0;whiteSpace=wrap;html=1;" parent="GQVjWhCtEIet-1jdMuYy-94" vertex="1">
          <mxGeometry width="110" height="50" as="geometry" />
        </mxCell>
        <mxCell id="GQVjWhCtEIet-1jdMuYy-96" value="&lt;span&gt;10: reference_2&lt;/span&gt;" style="rounded=0;whiteSpace=wrap;html=1;" parent="GQVjWhCtEIet-1jdMuYy-94" vertex="1">
          <mxGeometry x="110" width="110" height="50" as="geometry" />
        </mxCell>
        <mxCell id="GQVjWhCtEIet-1jdMuYy-97" value="" style="edgeStyle=orthogonalEdgeStyle;rounded=0;orthogonalLoop=1;jettySize=auto;html=1;entryX=0.5;entryY=0;entryDx=0;entryDy=0;" parent="GQVjWhCtEIet-1jdMuYy-92" source="GQVjWhCtEIet-1jdMuYy-93" target="GQVjWhCtEIet-1jdMuYy-95" edge="1">
          <mxGeometry relative="1" as="geometry">
            <mxPoint x="110" y="130" as="targetPoint" />
            <Array as="points">
              <mxPoint x="110" y="70" />
              <mxPoint x="55" y="70" />
            </Array>
          </mxGeometry>
        </mxCell>
        <mxCell id="GQVjWhCtEIet-1jdMuYy-98" value="" style="edgeStyle=orthogonalEdgeStyle;rounded=0;orthogonalLoop=1;jettySize=auto;html=1;exitX=0.5;exitY=1;exitDx=0;exitDy=0;" parent="GQVjWhCtEIet-1jdMuYy-92" edge="1">
          <mxGeometry relative="1" as="geometry">
            <mxPoint x="110" y="50" as="sourcePoint" />
            <mxPoint x="165" y="100" as="targetPoint" />
            <Array as="points">
              <mxPoint x="110" y="70" />
              <mxPoint x="165" y="70" />
            </Array>
          </mxGeometry>
        </mxCell>
        <mxCell id="OdK5-wwugDNc19tvupmn-13" value="" style="group" vertex="1" connectable="0" parent="1">
          <mxGeometry x="90" y="590" width="360" height="150" as="geometry" />
        </mxCell>
        <mxCell id="GQVjWhCtEIet-1jdMuYy-78" value="" style="group" parent="OdK5-wwugDNc19tvupmn-13" vertex="1" connectable="0">
          <mxGeometry width="240" height="150" as="geometry" />
        </mxCell>
        <mxCell id="GQVjWhCtEIet-1jdMuYy-61" value="5: reference_1&amp;nbsp;" style="rounded=0;whiteSpace=wrap;html=1;fillColor=#dae8fc;strokeColor=#6c8ebf;" parent="GQVjWhCtEIet-1jdMuYy-78" vertex="1">
          <mxGeometry x="55" width="110" height="50" as="geometry" />
        </mxCell>
        <mxCell id="GQVjWhCtEIet-1jdMuYy-73" value="" style="edgeStyle=orthogonalEdgeStyle;rounded=0;orthogonalLoop=1;jettySize=auto;html=1;entryX=0.5;entryY=0;entryDx=0;entryDy=0;" parent="GQVjWhCtEIet-1jdMuYy-78" source="GQVjWhCtEIet-1jdMuYy-61" edge="1">
          <mxGeometry relative="1" as="geometry">
            <mxPoint x="55" y="100" as="targetPoint" />
            <Array as="points">
              <mxPoint x="110" y="70" />
              <mxPoint x="55" y="70" />
            </Array>
          </mxGeometry>
        </mxCell>
        <mxCell id="OdK5-wwugDNc19tvupmn-1" value="2: reference_1&amp;nbsp;" style="rounded=0;whiteSpace=wrap;html=1;fillColor=#dae8fc;strokeColor=#6c8ebf;" vertex="1" parent="GQVjWhCtEIet-1jdMuYy-78">
          <mxGeometry x="-10" y="100" width="110" height="50" as="geometry" />
        </mxCell>
        <mxCell id="OdK5-wwugDNc19tvupmn-2" value="10: reference_11&amp;nbsp;" style="rounded=0;whiteSpace=wrap;html=1;fillColor=#dae8fc;strokeColor=#6c8ebf;" vertex="1" parent="GQVjWhCtEIet-1jdMuYy-78">
          <mxGeometry x="130" y="100" width="110" height="50" as="geometry" />
        </mxCell>
        <mxCell id="GQVjWhCtEIet-1jdMuYy-75" value="&lt;span style=&quot;color: rgba(0 , 0 , 0 , 0) ; font-family: monospace ; font-size: 0px ; background-color: rgb(248 , 249 , 250)&quot;&gt;%3CmxGraphModel%3E%3Croot%3E%3CmxCell%20id%3D%220%22%2F%3E%3CmxCell%20id%3D%221%22%20parent%3D%220%22%2F%3E%3CmxCell%20id%3D%222%22%20value%3D%225%3A%20reference_1%26amp%3Bnbsp%3B%22%20style%3D%22rounded%3D0%3BwhiteSpace%3Dwrap%3Bhtml%3D1%3B%22%20vertex%3D%221%22%20parent%3D%221%22%3E%3CmxGeometry%20x%3D%22160%22%20y%3D%22690%22%20width%3D%22110%22%20height%3D%2250%22%20as%3D%22geometry%22%2F%3E%3C%2FmxCell%3E%3C%2Froot%3E%3C%2FmxGraphModel%3E&lt;/span&gt;" style="edgeStyle=orthogonalEdgeStyle;rounded=0;orthogonalLoop=1;jettySize=auto;html=1;exitX=0.5;exitY=1;exitDx=0;exitDy=0;entryX=0.5;entryY=0;entryDx=0;entryDy=0;" parent="GQVjWhCtEIet-1jdMuYy-78" source="GQVjWhCtEIet-1jdMuYy-61" edge="1" target="OdK5-wwugDNc19tvupmn-2">
          <mxGeometry relative="1" as="geometry">
            <mxPoint x="210" y="60" as="sourcePoint" />
            <mxPoint x="245" y="100" as="targetPoint" />
            <Array as="points">
              <mxPoint x="110" y="70" />
              <mxPoint x="185" y="70" />
            </Array>
          </mxGeometry>
        </mxCell>
        <mxCell id="OdK5-wwugDNc19tvupmn-3" value="15: reference_3" style="whiteSpace=wrap;html=1;rounded=0;fillColor=#dae8fc;strokeColor=#6c8ebf;" vertex="1" parent="OdK5-wwugDNc19tvupmn-13">
          <mxGeometry x="250" y="100" width="110" height="50" as="geometry" />
        </mxCell>
        <mxCell id="OdK5-wwugDNc19tvupmn-4" value="" style="edgeStyle=orthogonalEdgeStyle;rounded=0;orthogonalLoop=1;jettySize=auto;html=1;" edge="1" parent="OdK5-wwugDNc19tvupmn-13" source="GQVjWhCtEIet-1jdMuYy-61" target="OdK5-wwugDNc19tvupmn-3">
          <mxGeometry relative="1" as="geometry">
            <Array as="points">
              <mxPoint x="110" y="70" />
              <mxPoint x="305" y="70" />
            </Array>
          </mxGeometry>
        </mxCell>
        <mxCell id="OdK5-wwugDNc19tvupmn-15" value="" style="group" vertex="1" connectable="0" parent="1">
          <mxGeometry x="540" y="590" width="275" height="150" as="geometry" />
        </mxCell>
        <mxCell id="OdK5-wwugDNc19tvupmn-16" value="5: reference_1&amp;nbsp;" style="rounded=0;whiteSpace=wrap;html=1;fillColor=#dae8fc;strokeColor=#6c8ebf;" vertex="1" parent="OdK5-wwugDNc19tvupmn-15">
          <mxGeometry x="55" width="110" height="50" as="geometry" />
        </mxCell>
        <mxCell id="OdK5-wwugDNc19tvupmn-17" value="" style="edgeStyle=orthogonalEdgeStyle;rounded=0;orthogonalLoop=1;jettySize=auto;html=1;entryX=0.5;entryY=0;entryDx=0;entryDy=0;" edge="1" parent="OdK5-wwugDNc19tvupmn-15" source="OdK5-wwugDNc19tvupmn-16">
          <mxGeometry relative="1" as="geometry">
            <mxPoint x="55" y="100" as="targetPoint" />
            <Array as="points">
              <mxPoint x="110" y="70" />
              <mxPoint x="55" y="70" />
            </Array>
          </mxGeometry>
        </mxCell>
        <mxCell id="OdK5-wwugDNc19tvupmn-18" value="2: reference_1&amp;nbsp;" style="rounded=0;whiteSpace=wrap;html=1;fillColor=#dae8fc;strokeColor=#6c8ebf;" vertex="1" parent="OdK5-wwugDNc19tvupmn-15">
          <mxGeometry x="-10" y="100" width="110" height="50" as="geometry" />
        </mxCell>
        <mxCell id="OdK5-wwugDNc19tvupmn-19" value="9: reference_4" style="rounded=0;whiteSpace=wrap;html=1;fillColor=#dae8fc;strokeColor=#6c8ebf;" vertex="1" parent="OdK5-wwugDNc19tvupmn-15">
          <mxGeometry x="130" y="100" width="110" height="50" as="geometry" />
        </mxCell>
        <mxCell id="OdK5-wwugDNc19tvupmn-20" value="&lt;span style=&quot;color: rgba(0 , 0 , 0 , 0) ; font-family: monospace ; font-size: 0px ; background-color: rgb(248 , 249 , 250)&quot;&gt;%3CmxGraphModel%3E%3Croot%3E%3CmxCell%20id%3D%220%22%2F%3E%3CmxCell%20id%3D%221%22%20parent%3D%220%22%2F%3E%3CmxCell%20id%3D%222%22%20value%3D%225%3A%20reference_1%26amp%3Bnbsp%3B%22%20style%3D%22rounded%3D0%3BwhiteSpace%3Dwrap%3Bhtml%3D1%3B%22%20vertex%3D%221%22%20parent%3D%221%22%3E%3CmxGeometry%20x%3D%22160%22%20y%3D%22690%22%20width%3D%22110%22%20height%3D%2250%22%20as%3D%22geometry%22%2F%3E%3C%2FmxCell%3E%3C%2Froot%3E%3C%2FmxGraphModel%3E&lt;/span&gt;" style="edgeStyle=orthogonalEdgeStyle;rounded=0;orthogonalLoop=1;jettySize=auto;html=1;exitX=0.5;exitY=1;exitDx=0;exitDy=0;entryX=0.5;entryY=0;entryDx=0;entryDy=0;" edge="1" parent="OdK5-wwugDNc19tvupmn-15" source="OdK5-wwugDNc19tvupmn-16" target="OdK5-wwugDNc19tvupmn-19">
          <mxGeometry relative="1" as="geometry">
            <mxPoint x="210" y="60" as="sourcePoint" />
            <mxPoint x="245" y="100" as="targetPoint" />
            <Array as="points">
              <mxPoint x="110" y="70" />
              <mxPoint x="185" y="70" />
            </Array>
          </mxGeometry>
        </mxCell>
        <mxCell id="OdK5-wwugDNc19tvupmn-23" value="10: reference_11&amp;nbsp;" style="rounded=0;whiteSpace=wrap;html=1;fillColor=#dae8fc;strokeColor=#6c8ebf;" vertex="1" parent="OdK5-wwugDNc19tvupmn-15">
          <mxGeometry x="165" width="110" height="50" as="geometry" />
        </mxCell>
        <mxCell id="OdK5-wwugDNc19tvupmn-21" value="15: reference_3" style="whiteSpace=wrap;html=1;rounded=0;fillColor=#dae8fc;strokeColor=#6c8ebf;" vertex="1" parent="1">
          <mxGeometry x="790" y="690" width="110" height="50" as="geometry" />
        </mxCell>
        <mxCell id="OdK5-wwugDNc19tvupmn-22" value="" style="edgeStyle=orthogonalEdgeStyle;rounded=0;orthogonalLoop=1;jettySize=auto;html=1;" edge="1" parent="1" source="OdK5-wwugDNc19tvupmn-16" target="OdK5-wwugDNc19tvupmn-21">
          <mxGeometry x="540" y="590" as="geometry">
            <Array as="points">
              <mxPoint x="650" y="660" />
              <mxPoint x="845" y="660" />
            </Array>
          </mxGeometry>
        </mxCell>
        <mxCell id="OdK5-wwugDNc19tvupmn-24" value="" style="edgeStyle=orthogonalEdgeStyle;rounded=0;orthogonalLoop=1;jettySize=auto;html=1;" edge="1" parent="1" source="OdK5-wwugDNc19tvupmn-23" target="OdK5-wwugDNc19tvupmn-21">
          <mxGeometry relative="1" as="geometry">
            <Array as="points">
              <mxPoint x="760" y="660" />
              <mxPoint x="845" y="660" />
            </Array>
          </mxGeometry>
        </mxCell>
      </root>
    </mxGraphModel>
  </diagram>
</mxfile>
